<svg fill="#c9c9c9" viewBox="0 0 52 52" xmlns="http://www.w3.org/2000/svg" stroke="#c9c9c9"><g id="SVGRepo_bgCarrier" stroke-width="0"></g><g id="SVGRepo_tracerCarrier" stroke-linecap="round" stroke-linejoin="round"></g><g id="SVGRepo_iconCarrier"><path d="M5.29,4.82A2.83,2.83,0,0,1,8.12,2H29.76a2.83,2.83,0,0,1,2.83,2.82V10H20.35a4.23,4.23,0,0,0-4.23,4.24V36.82a4.23,4.23,0,0,0,4.23,4.24H32.59v6.12A2.83,2.83,0,0,1,29.76,50H8.12a2.83,2.83,0,0,1-2.83-2.82Zm15.06,7.53a1.89,1.89,0,0,0-1.88,1.89V36.82a1.89,1.89,0,0,0,1.88,1.89H44.82a1.89,1.89,0,0,0,1.89-1.89V14.24a1.89,1.89,0,0,0-1.89-1.89Z" fill-rule="evenodd"></path></g></svg>