<svg fill="#c9c9c9" version="1.1" id="Capa_1" xmlns="http://www.w3.org/2000/svg" xmlns:xlink="http://www.w3.org/1999/xlink" viewBox="0 0 388.078 388.078" xml:space="preserve" stroke="#c9c9c9"><g id="SVGRepo_bgCarrier" stroke-width="0"></g><g id="SVGRepo_tracerCarrier" stroke-linecap="round" stroke-linejoin="round"></g><g id="SVGRepo_iconCarrier"> <g> <g> <g> <path d="M380.966,70.191c-2.021-20.668-11.968-39.313-28.009-52.498C339.358,6.515,322.758,0.418,305.43,0.041V0H84.471v0.004 c-17.987-0.029-35.276,6.119-49.35,17.689C19.079,30.879,9.133,49.523,7.112,70.191c-3.506,35.896,22.846,67.955,58.743,71.465 c1.842,0.18,3.679,0.27,5.505,0.27c12.82,0,25.14-4.396,35.174-12.645c11.462-9.422,18.569-22.744,20.014-37.512 c1.237-12.67-2.534-25.064-10.618-34.898c-8.085-9.836-19.515-15.934-32.185-17.17C74.898,38.836,67.02,45.31,66.156,54.16 c-0.864,8.85,5.609,16.723,14.459,17.588c4.109,0.402,7.816,2.381,10.439,5.57c2.623,3.191,3.846,7.211,3.444,11.318 c-0.606,6.209-3.595,11.809-8.413,15.77c-4.818,3.961-10.889,5.809-17.098,5.203c-18.228-1.781-31.608-18.061-29.828-36.287 c1.184-12.107,7.011-23.029,16.408-30.754s21.241-11.33,33.348-10.145c33.451,3.27,58.007,33.145,54.738,66.594h100.769 c-3.268-33.449,21.288-63.324,54.739-66.594c12.104-1.186,23.948,2.42,33.348,10.145c9.397,7.725,15.226,18.646,16.408,30.754 c1.78,18.227-11.602,34.506-29.828,36.287c-6.208,0.605-12.278-1.242-17.098-5.203c-4.82-3.961-7.809-9.561-8.413-15.77 c-0.401-4.107,0.821-8.127,3.443-11.318c2.623-3.189,6.329-5.168,10.438-5.57c8.851-0.865,15.323-8.738,14.459-17.588 c-0.864-8.85-8.742-15.324-17.589-14.459c-12.67,1.236-24.102,7.334-32.187,17.17c-8.083,9.834-11.854,22.229-10.616,34.898 c1.442,14.768,8.552,28.09,20.014,37.512c10.034,8.248,22.354,12.645,35.174,12.645c1.826,0,3.663-0.09,5.504-0.27 C358.12,138.146,384.472,106.088,380.966,70.191z"></path> <path d="M260.059,327.102V114.949h-132.04v212.151c-14.712,2.257-25.98,14.968-25.98,30.31c0,16.938,13.73,30.668,30.667,30.668 h122.667c16.938,0,30.667-13.73,30.667-30.668C286.039,342.068,274.771,329.357,260.059,327.102z M176.392,170.943 c0-9.746,7.9-17.65,17.647-17.65c9.749,0,17.647,7.904,17.647,17.65v118.014c0,9.746-7.898,17.648-17.647,17.648 c-9.747,0-17.647-7.902-17.647-17.648V170.943z"></path> </g> </g> </g> </g></svg>